solid OpenSCAD_Model
  facet normal 0.866025 0.5 0
    outer loop
      vertex 15.987 7.11789 2
      vertex 14.1578 10.2862 0
      vertex 14.1578 10.2862 2
    endloop
  endfacet
  facet normal 0.866025 0.5 0
    outer loop
      vertex 14.1578 10.2862 0
      vertex 15.987 7.11789 2
      vertex 15.987 7.11789 0
    endloop
  endfacet
  facet normal 0.743145 0.669131 0
    outer loop
      vertex 14.1578 10.2862 2
      vertex 11.7098 13.005 0
      vertex 11.7098 13.005 2
    endloop
  endfacet
  facet normal 0.743145 0.669131 0
    outer loop
      vertex 11.7098 13.005 0
      vertex 14.1578 10.2862 2
      vertex 14.1578 10.2862 0
    endloop
  endfacet
  facet normal 0.207911 0.978148 -0
    outer loop
      vertex 5.4078 16.6435 0
      vertex 1.82925 17.4041 2
      vertex 5.4078 16.6435 2
    endloop
  endfacet
  facet normal 0.207911 0.978148 0
    outer loop
      vertex 1.82925 17.4041 2
      vertex 5.4078 16.6435 0
      vertex 1.82925 17.4041 0
    endloop
  endfacet
  facet normal 0.406737 0.913545 -0
    outer loop
      vertex 8.75 15.1554 0
      vertex 5.4078 16.6435 2
      vertex 8.75 15.1554 2
    endloop
  endfacet
  facet normal 0.406737 0.913545 0
    outer loop
      vertex 5.4078 16.6435 2
      vertex 8.75 15.1554 0
      vertex 5.4078 16.6435 0
    endloop
  endfacet
  facet normal -0.207911 0.978148 0
    outer loop
      vertex -1.82925 17.4041 0
      vertex -5.4078 16.6435 2
      vertex -1.82925 17.4041 2
    endloop
  endfacet
  facet normal -0.207911 0.978148 0
    outer loop
      vertex -5.4078 16.6435 2
      vertex -1.82925 17.4041 0
      vertex -5.4078 16.6435 0
    endloop
  endfacet
  facet normal -0.866025 0.5 0
    outer loop
      vertex -15.987 7.11789 0
      vertex -14.1578 10.2862 2
      vertex -14.1578 10.2862 0
    endloop
  endfacet
  facet normal -0.866025 0.5 0
    outer loop
      vertex -14.1578 10.2862 2
      vertex -15.987 7.11789 0
      vertex -15.987 7.11789 2
    endloop
  endfacet
  facet normal 0.994522 -0.104529 0
    outer loop
      vertex 17.1176 -3.63845 2
      vertex 17.5 0 0
      vertex 17.5 0 2
    endloop
  endfacet
  facet normal 0.994522 -0.104529 0
    outer loop
      vertex 17.5 0 0
      vertex 17.1176 -3.63845 2
      vertex 17.1176 -3.63845 0
    endloop
  endfacet
  facet normal 0.587785 0.809017 -0
    outer loop
      vertex 11.7098 13.005 0
      vertex 8.75 15.1554 2
      vertex 11.7098 13.005 2
    endloop
  endfacet
  facet normal 0.587785 0.809017 0
    outer loop
      vertex 8.75 15.1554 2
      vertex 11.7098 13.005 0
      vertex 8.75 15.1554 0
    endloop
  endfacet
  facet normal 0 1 -0
    outer loop
      vertex 1.82925 17.4041 0
      vertex -1.82925 17.4041 2
      vertex 1.82925 17.4041 2
    endloop
  endfacet
  facet normal 0 1 0
    outer loop
      vertex -1.82925 17.4041 2
      vertex 1.82925 17.4041 0
      vertex -1.82925 17.4041 0
    endloop
  endfacet
  facet normal -0.994522 0.104529 0
    outer loop
      vertex -17.5 0 0
      vertex -17.1176 3.63845 2
      vertex -17.1176 3.63845 0
    endloop
  endfacet
  facet normal -0.994522 0.104529 0
    outer loop
      vertex -17.1176 3.63845 2
      vertex -17.5 0 0
      vertex -17.5 0 2
    endloop
  endfacet
  facet normal -0.743145 0.669131 0
    outer loop
      vertex -14.1578 10.2862 0
      vertex -11.7098 13.005 2
      vertex -11.7098 13.005 0
    endloop
  endfacet
  facet normal -0.743145 0.669131 0
    outer loop
      vertex -11.7098 13.005 2
      vertex -14.1578 10.2862 0
      vertex -14.1578 10.2862 2
    endloop
  endfacet
  facet normal -0.406737 0.913545 0
    outer loop
      vertex -5.4078 16.6435 0
      vertex -8.75 15.1554 2
      vertex -5.4078 16.6435 2
    endloop
  endfacet
  facet normal -0.406737 0.913545 0
    outer loop
      vertex -8.75 15.1554 2
      vertex -5.4078 16.6435 0
      vertex -8.75 15.1554 0
    endloop
  endfacet
  facet normal -0.587785 0.809017 0
    outer loop
      vertex -8.75 15.1554 0
      vertex -11.7098 13.005 2
      vertex -8.75 15.1554 2
    endloop
  endfacet
  facet normal -0.587785 0.809017 0
    outer loop
      vertex -11.7098 13.005 2
      vertex -8.75 15.1554 0
      vertex -11.7098 13.005 0
    endloop
  endfacet
  facet normal 0.994522 0.104529 0
    outer loop
      vertex 17.5 0 2
      vertex 17.1176 3.63845 0
      vertex 17.1176 3.63845 2
    endloop
  endfacet
  facet normal 0.994522 0.104529 0
    outer loop
      vertex 17.1176 3.63845 0
      vertex 17.5 0 2
      vertex 17.5 0 0
    endloop
  endfacet
  facet normal -0.587785 -0.809017 0
    outer loop
      vertex -11.7098 -13.005 0
      vertex -8.75 -15.1554 2
      vertex -11.7098 -13.005 2
    endloop
  endfacet
  facet normal -0.587785 -0.809017 -0
    outer loop
      vertex -8.75 -15.1554 2
      vertex -11.7098 -13.005 0
      vertex -8.75 -15.1554 0
    endloop
  endfacet
  facet normal -0.866025 -0.5 0
    outer loop
      vertex -14.1578 -10.2862 0
      vertex -15.987 -7.11789 2
      vertex -15.987 -7.11789 0
    endloop
  endfacet
  facet normal -0.866025 -0.5 0
    outer loop
      vertex -15.987 -7.11789 2
      vertex -14.1578 -10.2862 0
      vertex -14.1578 -10.2862 2
    endloop
  endfacet
  facet normal 0.587785 -0.809017 0
    outer loop
      vertex 8.75 -15.1554 0
      vertex 11.7098 -13.005 2
      vertex 8.75 -15.1554 2
    endloop
  endfacet
  facet normal 0.587785 -0.809017 0
    outer loop
      vertex 11.7098 -13.005 2
      vertex 8.75 -15.1554 0
      vertex 11.7098 -13.005 0
    endloop
  endfacet
  facet normal 0.951057 0.309017 0
    outer loop
      vertex 17.1176 3.63845 2
      vertex 15.987 7.11789 0
      vertex 15.987 7.11789 2
    endloop
  endfacet
  facet normal 0.951057 0.309017 0
    outer loop
      vertex 15.987 7.11789 0
      vertex 17.1176 3.63845 2
      vertex 17.1176 3.63845 0
    endloop
  endfacet
  facet normal 0 0 1
    outer loop
      vertex 10 0 2
      vertex 17.5 0 2
      vertex 17.1176 3.63845 2
    endloop
  endfacet
  facet normal 0 0 1
    outer loop
      vertex 9.78148 2.07912 2
      vertex 17.1176 3.63845 2
      vertex 15.987 7.11789 2
    endloop
  endfacet
  facet normal 0 0 1
    outer loop
      vertex 17.5 0 2
      vertex 10 0 2
      vertex 17.1176 -3.63845 2
    endloop
  endfacet
  facet normal 0 0 1
    outer loop
      vertex 9.13545 4.06737 2
      vertex 15.987 7.11789 2
      vertex 14.1578 10.2862 2
    endloop
  endfacet
  facet normal -0 0 1
    outer loop
      vertex 9.78148 -2.07912 2
      vertex 17.1176 -3.63845 2
      vertex 10 0 2
    endloop
  endfacet
  facet normal 0 0 1
    outer loop
      vertex 8.09017 5.87785 2
      vertex 14.1578 10.2862 2
      vertex 11.7098 13.005 2
    endloop
  endfacet
  facet normal 0 0 1
    outer loop
      vertex 17.1176 -3.63845 2
      vertex 9.78148 -2.07912 2
      vertex 15.987 -7.11789 2
    endloop
  endfacet
  facet normal -0 0 1
    outer loop
      vertex 9.13545 -4.06737 2
      vertex 15.987 -7.11789 2
      vertex 9.78148 -2.07912 2
    endloop
  endfacet
  facet normal 0 0 1
    outer loop
      vertex 17.1176 3.63845 2
      vertex 9.78148 2.07912 2
      vertex 10 0 2
    endloop
  endfacet
  facet normal 0 0 1
    outer loop
      vertex 15.987 7.11789 2
      vertex 9.13545 4.06737 2
      vertex 9.78148 2.07912 2
    endloop
  endfacet
  facet normal 0 0 1
    outer loop
      vertex 6.69131 7.43145 2
      vertex 11.7098 13.005 2
      vertex 8.75 15.1554 2
    endloop
  endfacet
  facet normal 0 0 1
    outer loop
      vertex 14.1578 10.2862 2
      vertex 8.09017 5.87785 2
      vertex 9.13545 4.06737 2
    endloop
  endfacet
  facet normal 0 0 1
    outer loop
      vertex 11.7098 13.005 2
      vertex 6.69131 7.43145 2
      vertex 8.09017 5.87785 2
    endloop
  endfacet
  facet normal 0 0 1
    outer loop
      vertex 5 8.66025 2
      vertex 8.75 15.1554 2
      vertex 5.4078 16.6435 2
    endloop
  endfacet
  facet normal 0 0 1
    outer loop
      vertex 8.75 15.1554 2
      vertex 5 8.66025 2
      vertex 6.69131 7.43145 2
    endloop
  endfacet
  facet normal 0 0 1
    outer loop
      vertex 5.4078 16.6435 2
      vertex 3.09017 9.51056 2
      vertex 5 8.66025 2
    endloop
  endfacet
  facet normal 0 0 1
    outer loop
      vertex 1.82925 17.4041 2
      vertex 3.09017 9.51056 2
      vertex 5.4078 16.6435 2
    endloop
  endfacet
  facet normal 0 0 1
    outer loop
      vertex 1.82925 17.4041 2
      vertex 1.04528 9.94522 2
      vertex 3.09017 9.51056 2
    endloop
  endfacet
  facet normal 0 0 1
    outer loop
      vertex 1.82925 17.4041 2
      vertex -1.04528 9.94522 2
      vertex 1.04528 9.94522 2
    endloop
  endfacet
  facet normal -0 0 1
    outer loop
      vertex -1.82925 17.4041 2
      vertex -1.04528 9.94522 2
      vertex 1.82925 17.4041 2
    endloop
  endfacet
  facet normal 0 0 1
    outer loop
      vertex -1.82925 17.4041 2
      vertex -3.09017 9.51056 2
      vertex -1.04528 9.94522 2
    endloop
  endfacet
  facet normal -0 0 1
    outer loop
      vertex -5.4078 16.6435 2
      vertex -3.09017 9.51056 2
      vertex -1.82925 17.4041 2
    endloop
  endfacet
  facet normal 0 0 1
    outer loop
      vertex -3.09017 9.51056 2
      vertex -5.4078 16.6435 2
      vertex -5 8.66025 2
    endloop
  endfacet
  facet normal -0 0 1
    outer loop
      vertex -8.75 15.1554 2
      vertex -5 8.66025 2
      vertex -5.4078 16.6435 2
    endloop
  endfacet
  facet normal 0 0 1
    outer loop
      vertex -5 8.66025 2
      vertex -8.75 15.1554 2
      vertex -6.69131 7.43145 2
    endloop
  endfacet
  facet normal -0 0 1
    outer loop
      vertex -11.7098 13.005 2
      vertex -6.69131 7.43145 2
      vertex -8.75 15.1554 2
    endloop
  endfacet
  facet normal 0 0 1
    outer loop
      vertex -6.69131 7.43145 2
      vertex -11.7098 13.005 2
      vertex -8.09017 5.87785 2
    endloop
  endfacet
  facet normal -0 0 1
    outer loop
      vertex -14.1578 10.2862 2
      vertex -8.09017 5.87785 2
      vertex -11.7098 13.005 2
    endloop
  endfacet
  facet normal 0 0 1
    outer loop
      vertex -8.09017 5.87785 2
      vertex -14.1578 10.2862 2
      vertex -9.13545 4.06737 2
    endloop
  endfacet
  facet normal -0 0 1
    outer loop
      vertex -15.987 7.11789 2
      vertex -9.13545 4.06737 2
      vertex -14.1578 10.2862 2
    endloop
  endfacet
  facet normal 0 0 1
    outer loop
      vertex 15.987 -7.11789 2
      vertex 9.13545 -4.06737 2
      vertex 14.1578 -10.2862 2
    endloop
  endfacet
  facet normal -0 0 1
    outer loop
      vertex 8.09017 -5.87785 2
      vertex 14.1578 -10.2862 2
      vertex 9.13545 -4.06737 2
    endloop
  endfacet
  facet normal 0 0 1
    outer loop
      vertex 14.1578 -10.2862 2
      vertex 8.09017 -5.87785 2
      vertex 11.7098 -13.005 2
    endloop
  endfacet
  facet normal -0 0 1
    outer loop
      vertex 6.69131 -7.43145 2
      vertex 11.7098 -13.005 2
      vertex 8.09017 -5.87785 2
    endloop
  endfacet
  facet normal 0 0 1
    outer loop
      vertex 11.7098 -13.005 2
      vertex 6.69131 -7.43145 2
      vertex 8.75 -15.1554 2
    endloop
  endfacet
  facet normal -0 0 1
    outer loop
      vertex 5 -8.66025 2
      vertex 8.75 -15.1554 2
      vertex 6.69131 -7.43145 2
    endloop
  endfacet
  facet normal 0 0 1
    outer loop
      vertex 8.75 -15.1554 2
      vertex 5 -8.66025 2
      vertex 5.4078 -16.6435 2
    endloop
  endfacet
  facet normal -0 0 1
    outer loop
      vertex 3.09017 -9.51056 2
      vertex 5.4078 -16.6435 2
      vertex 5 -8.66025 2
    endloop
  endfacet
  facet normal 0 0 1
    outer loop
      vertex 3.09017 -9.51056 2
      vertex 1.82925 -17.4041 2
      vertex 5.4078 -16.6435 2
    endloop
  endfacet
  facet normal -0 0 1
    outer loop
      vertex 1.04528 -9.94522 2
      vertex 1.82925 -17.4041 2
      vertex 3.09017 -9.51056 2
    endloop
  endfacet
  facet normal -0 0 1
    outer loop
      vertex -1.04528 -9.94522 2
      vertex 1.82925 -17.4041 2
      vertex 1.04528 -9.94522 2
    endloop
  endfacet
  facet normal 0 0 1
    outer loop
      vertex -1.04528 -9.94522 2
      vertex -1.82925 -17.4041 2
      vertex 1.82925 -17.4041 2
    endloop
  endfacet
  facet normal 0 0 1
    outer loop
      vertex -3.09017 -9.51056 2
      vertex -1.82925 -17.4041 2
      vertex -1.04528 -9.94522 2
    endloop
  endfacet
  facet normal 0 0 1
    outer loop
      vertex -5.4078 -16.6435 2
      vertex -3.09017 -9.51056 2
      vertex -5 -8.66025 2
    endloop
  endfacet
  facet normal 0 0 1
    outer loop
      vertex -3.09017 -9.51056 2
      vertex -5.4078 -16.6435 2
      vertex -1.82925 -17.4041 2
    endloop
  endfacet
  facet normal 0 0 1
    outer loop
      vertex -8.75 -15.1554 2
      vertex -5 -8.66025 2
      vertex -6.69131 -7.43145 2
    endloop
  endfacet
  facet normal 0 0 1
    outer loop
      vertex -11.7098 -13.005 2
      vertex -6.69131 -7.43145 2
      vertex -8.09017 -5.87785 2
    endloop
  endfacet
  facet normal 0 0 1
    outer loop
      vertex -5 -8.66025 2
      vertex -8.75 -15.1554 2
      vertex -5.4078 -16.6435 2
    endloop
  endfacet
  facet normal 0 0 1
    outer loop
      vertex -14.1578 -10.2862 2
      vertex -8.09017 -5.87785 2
      vertex -9.13545 -4.06737 2
    endloop
  endfacet
  facet normal 0 0 1
    outer loop
      vertex -15.987 -7.11789 2
      vertex -9.13545 -4.06737 2
      vertex -9.78148 -2.07912 2
    endloop
  endfacet
  facet normal 0 0 1
    outer loop
      vertex -17.1176 -3.63845 2
      vertex -9.78148 -2.07912 2
      vertex -10 0 2
    endloop
  endfacet
  facet normal 0 0 1
    outer loop
      vertex -9.13545 4.06737 2
      vertex -15.987 7.11789 2
      vertex -9.78148 2.07912 2
    endloop
  endfacet
  facet normal 0 0 1
    outer loop
      vertex -6.69131 -7.43145 2
      vertex -11.7098 -13.005 2
      vertex -8.75 -15.1554 2
    endloop
  endfacet
  facet normal -0 0 1
    outer loop
      vertex -17.1176 3.63845 2
      vertex -9.78148 2.07912 2
      vertex -15.987 7.11789 2
    endloop
  endfacet
  facet normal 0 0 1
    outer loop
      vertex -8.09017 -5.87785 2
      vertex -14.1578 -10.2862 2
      vertex -11.7098 -13.005 2
    endloop
  endfacet
  facet normal 0 0 1
    outer loop
      vertex -9.78148 2.07912 2
      vertex -17.1176 3.63845 2
      vertex -10 0 2
    endloop
  endfacet
  facet normal 0 0 1
    outer loop
      vertex -9.13545 -4.06737 2
      vertex -15.987 -7.11789 2
      vertex -14.1578 -10.2862 2
    endloop
  endfacet
  facet normal 0 0 1
    outer loop
      vertex -17.5 0 2
      vertex -10 0 2
      vertex -17.1176 3.63845 2
    endloop
  endfacet
  facet normal 0 0 1
    outer loop
      vertex -9.78148 -2.07912 2
      vertex -17.1176 -3.63845 2
      vertex -15.987 -7.11789 2
    endloop
  endfacet
  facet normal 0 0 1
    outer loop
      vertex -10 0 2
      vertex -17.5 0 2
      vertex -17.1176 -3.63845 2
    endloop
  endfacet
  facet normal -0.951057 0.309017 0
    outer loop
      vertex -17.1176 3.63845 0
      vertex -15.987 7.11789 2
      vertex -15.987 7.11789 0
    endloop
  endfacet
  facet normal -0.951057 0.309017 0
    outer loop
      vertex -15.987 7.11789 2
      vertex -17.1176 3.63845 0
      vertex -17.1176 3.63845 2
    endloop
  endfacet
  facet normal 0.866025 -0.5 0
    outer loop
      vertex 14.1578 -10.2862 2
      vertex 15.987 -7.11789 0
      vertex 15.987 -7.11789 2
    endloop
  endfacet
  facet normal 0.866025 -0.5 0
    outer loop
      vertex 15.987 -7.11789 0
      vertex 14.1578 -10.2862 2
      vertex 14.1578 -10.2862 0
    endloop
  endfacet
  facet normal -0.994522 -0.104529 0
    outer loop
      vertex -17.1176 -3.63845 0
      vertex -17.5 0 2
      vertex -17.5 0 0
    endloop
  endfacet
  facet normal -0.994522 -0.104529 0
    outer loop
      vertex -17.5 0 2
      vertex -17.1176 -3.63845 0
      vertex -17.1176 -3.63845 2
    endloop
  endfacet
  facet normal -0.743145 -0.669131 0
    outer loop
      vertex -11.7098 -13.005 0
      vertex -14.1578 -10.2862 2
      vertex -14.1578 -10.2862 0
    endloop
  endfacet
  facet normal -0.743145 -0.669131 0
    outer loop
      vertex -14.1578 -10.2862 2
      vertex -11.7098 -13.005 0
      vertex -11.7098 -13.005 2
    endloop
  endfacet
  facet normal 0.207911 -0.978148 0
    outer loop
      vertex 1.82925 -17.4041 0
      vertex 5.4078 -16.6435 2
      vertex 1.82925 -17.4041 2
    endloop
  endfacet
  facet normal 0.207911 -0.978148 0
    outer loop
      vertex 5.4078 -16.6435 2
      vertex 1.82925 -17.4041 0
      vertex 5.4078 -16.6435 0
    endloop
  endfacet
  facet normal 0.406737 -0.913545 0
    outer loop
      vertex 5.4078 -16.6435 0
      vertex 8.75 -15.1554 2
      vertex 5.4078 -16.6435 2
    endloop
  endfacet
  facet normal 0.406737 -0.913545 0
    outer loop
      vertex 8.75 -15.1554 2
      vertex 5.4078 -16.6435 0
      vertex 8.75 -15.1554 0
    endloop
  endfacet
  facet normal 0.951057 -0.309017 0
    outer loop
      vertex 15.987 -7.11789 2
      vertex 17.1176 -3.63845 0
      vertex 17.1176 -3.63845 2
    endloop
  endfacet
  facet normal 0.951057 -0.309017 0
    outer loop
      vertex 17.1176 -3.63845 0
      vertex 15.987 -7.11789 2
      vertex 15.987 -7.11789 0
    endloop
  endfacet
  facet normal -0.406737 -0.913545 0
    outer loop
      vertex -8.75 -15.1554 0
      vertex -5.4078 -16.6435 2
      vertex -8.75 -15.1554 2
    endloop
  endfacet
  facet normal -0.406737 -0.913545 -0
    outer loop
      vertex -5.4078 -16.6435 2
      vertex -8.75 -15.1554 0
      vertex -5.4078 -16.6435 0
    endloop
  endfacet
  facet normal 0 -1 0
    outer loop
      vertex -1.82925 -17.4041 0
      vertex 1.82925 -17.4041 2
      vertex -1.82925 -17.4041 2
    endloop
  endfacet
  facet normal 0 -1 -0
    outer loop
      vertex 1.82925 -17.4041 2
      vertex -1.82925 -17.4041 0
      vertex 1.82925 -17.4041 0
    endloop
  endfacet
  facet normal 0 0 -1
    outer loop
      vertex 2.5 0 0
      vertex 17.5 0 0
      vertex 17.1176 -3.63845 0
    endloop
  endfacet
  facet normal 0 0 -1
    outer loop
      vertex 2.44537 -0.519779 0
      vertex 17.1176 -3.63845 0
      vertex 15.987 -7.11789 0
    endloop
  endfacet
  facet normal 0 0 -1
    outer loop
      vertex 17.5 0 0
      vertex 2.5 0 0
      vertex 17.1176 3.63845 0
    endloop
  endfacet
  facet normal 0 0 -1
    outer loop
      vertex 2.28386 -1.01684 0
      vertex 15.987 -7.11789 0
      vertex 14.1578 -10.2862 0
    endloop
  endfacet
  facet normal 0 0 -1
    outer loop
      vertex 2.44537 0.519779 0
      vertex 17.1176 3.63845 0
      vertex 2.5 0 0
    endloop
  endfacet
  facet normal 0 0 -1
    outer loop
      vertex 2.02254 -1.46946 0
      vertex 14.1578 -10.2862 0
      vertex 11.7098 -13.005 0
    endloop
  endfacet
  facet normal -0 0 -1
    outer loop
      vertex 17.1176 3.63845 0
      vertex 2.44537 0.519779 0
      vertex 15.987 7.11789 0
    endloop
  endfacet
  facet normal 0 0 -1
    outer loop
      vertex 1.67283 -1.85786 0
      vertex 11.7098 -13.005 0
      vertex 8.75 -15.1554 0
    endloop
  endfacet
  facet normal 0 0 -1
    outer loop
      vertex 2.28386 1.01684 0
      vertex 15.987 7.11789 0
      vertex 2.44537 0.519779 0
    endloop
  endfacet
  facet normal 0 0 -1
    outer loop
      vertex 1.25 -2.16506 0
      vertex 8.75 -15.1554 0
      vertex 5.4078 -16.6435 0
    endloop
  endfacet
  facet normal -0 0 -1
    outer loop
      vertex 15.987 7.11789 0
      vertex 2.28386 1.01684 0
      vertex 14.1578 10.2862 0
    endloop
  endfacet
  facet normal 0 0 -1
    outer loop
      vertex 2.02254 1.46946 0
      vertex 14.1578 10.2862 0
      vertex 2.28386 1.01684 0
    endloop
  endfacet
  facet normal 0 0 -1
    outer loop
      vertex 17.1176 -3.63845 0
      vertex 2.44537 -0.519779 0
      vertex 2.5 0 0
    endloop
  endfacet
  facet normal 0 0 -1
    outer loop
      vertex 15.987 -7.11789 0
      vertex 2.28386 -1.01684 0
      vertex 2.44537 -0.519779 0
    endloop
  endfacet
  facet normal 0 0 -1
    outer loop
      vertex 14.1578 -10.2862 0
      vertex 2.02254 -1.46946 0
      vertex 2.28386 -1.01684 0
    endloop
  endfacet
  facet normal 0 0 -1
    outer loop
      vertex 0.772542 -2.37764 0
      vertex 5.4078 -16.6435 0
      vertex 1.82925 -17.4041 0
    endloop
  endfacet
  facet normal 0 0 -1
    outer loop
      vertex 11.7098 -13.005 0
      vertex 1.67283 -1.85786 0
      vertex 2.02254 -1.46946 0
    endloop
  endfacet
  facet normal 0 0 -1
    outer loop
      vertex 8.75 -15.1554 0
      vertex 1.25 -2.16506 0
      vertex 1.67283 -1.85786 0
    endloop
  endfacet
  facet normal 0 0 -1
    outer loop
      vertex 5.4078 -16.6435 0
      vertex 0.772542 -2.37764 0
      vertex 1.25 -2.16506 0
    endloop
  endfacet
  facet normal 0 0 -1
    outer loop
      vertex 1.82925 -17.4041 0
      vertex 0.261321 -2.4863 0
      vertex 0.772542 -2.37764 0
    endloop
  endfacet
  facet normal 0 0 -1
    outer loop
      vertex 1.82925 -17.4041 0
      vertex -0.261321 -2.4863 0
      vertex 0.261321 -2.4863 0
    endloop
  endfacet
  facet normal 0 0 -1
    outer loop
      vertex -1.82925 -17.4041 0
      vertex -0.261321 -2.4863 0
      vertex 1.82925 -17.4041 0
    endloop
  endfacet
  facet normal -0 0 -1
    outer loop
      vertex -0.261321 -2.4863 0
      vertex -1.82925 -17.4041 0
      vertex -0.772542 -2.37764 0
    endloop
  endfacet
  facet normal 0 0 -1
    outer loop
      vertex -5.4078 -16.6435 0
      vertex -0.772542 -2.37764 0
      vertex -1.82925 -17.4041 0
    endloop
  endfacet
  facet normal -0 0 -1
    outer loop
      vertex -0.772542 -2.37764 0
      vertex -5.4078 -16.6435 0
      vertex -1.25 -2.16506 0
    endloop
  endfacet
  facet normal 0 0 -1
    outer loop
      vertex -8.75 -15.1554 0
      vertex -1.25 -2.16506 0
      vertex -5.4078 -16.6435 0
    endloop
  endfacet
  facet normal -0 0 -1
    outer loop
      vertex -1.25 -2.16506 0
      vertex -8.75 -15.1554 0
      vertex -1.67283 -1.85786 0
    endloop
  endfacet
  facet normal 0 0 -1
    outer loop
      vertex -11.7098 -13.005 0
      vertex -1.67283 -1.85786 0
      vertex -8.75 -15.1554 0
    endloop
  endfacet
  facet normal -0 0 -1
    outer loop
      vertex -1.67283 -1.85786 0
      vertex -11.7098 -13.005 0
      vertex -2.02254 -1.46946 0
    endloop
  endfacet
  facet normal 0 0 -1
    outer loop
      vertex -14.1578 -10.2862 0
      vertex -2.02254 -1.46946 0
      vertex -11.7098 -13.005 0
    endloop
  endfacet
  facet normal -0 0 -1
    outer loop
      vertex 14.1578 10.2862 0
      vertex 2.02254 1.46946 0
      vertex 11.7098 13.005 0
    endloop
  endfacet
  facet normal 0 0 -1
    outer loop
      vertex 1.67283 1.85786 0
      vertex 11.7098 13.005 0
      vertex 2.02254 1.46946 0
    endloop
  endfacet
  facet normal -0 0 -1
    outer loop
      vertex 11.7098 13.005 0
      vertex 1.67283 1.85786 0
      vertex 8.75 15.1554 0
    endloop
  endfacet
  facet normal 0 0 -1
    outer loop
      vertex 1.25 2.16506 0
      vertex 8.75 15.1554 0
      vertex 1.67283 1.85786 0
    endloop
  endfacet
  facet normal -0 0 -1
    outer loop
      vertex 8.75 15.1554 0
      vertex 1.25 2.16506 0
      vertex 5.4078 16.6435 0
    endloop
  endfacet
  facet normal 0 0 -1
    outer loop
      vertex 0.772542 2.37764 0
      vertex 5.4078 16.6435 0
      vertex 1.25 2.16506 0
    endloop
  endfacet
  facet normal -0 0 -1
    outer loop
      vertex 5.4078 16.6435 0
      vertex 0.772542 2.37764 0
      vertex 1.82925 17.4041 0
    endloop
  endfacet
  facet normal 0 0 -1
    outer loop
      vertex 0.261321 2.4863 0
      vertex 1.82925 17.4041 0
      vertex 0.772542 2.37764 0
    endloop
  endfacet
  facet normal 0 0 -1
    outer loop
      vertex -0.261321 2.4863 0
      vertex 1.82925 17.4041 0
      vertex 0.261321 2.4863 0
    endloop
  endfacet
  facet normal 0 0 -1
    outer loop
      vertex -1.82925 17.4041 0
      vertex -0.261321 2.4863 0
      vertex -0.772542 2.37764 0
    endloop
  endfacet
  facet normal 0 0 -1
    outer loop
      vertex -5.4078 16.6435 0
      vertex -0.772542 2.37764 0
      vertex -1.25 2.16506 0
    endloop
  endfacet
  facet normal 0 0 -1
    outer loop
      vertex -8.75 15.1554 0
      vertex -1.25 2.16506 0
      vertex -1.67283 1.85786 0
    endloop
  endfacet
  facet normal 0 0 -1
    outer loop
      vertex -0.261321 2.4863 0
      vertex -1.82925 17.4041 0
      vertex 1.82925 17.4041 0
    endloop
  endfacet
  facet normal 0 0 -1
    outer loop
      vertex -11.7098 13.005 0
      vertex -1.67283 1.85786 0
      vertex -2.02254 1.46946 0
    endloop
  endfacet
  facet normal 0 0 -1
    outer loop
      vertex -14.1578 10.2862 0
      vertex -2.02254 1.46946 0
      vertex -2.28386 1.01684 0
    endloop
  endfacet
  facet normal 0 0 -1
    outer loop
      vertex -15.987 7.11789 0
      vertex -2.28386 1.01684 0
      vertex -2.44537 0.519779 0
    endloop
  endfacet
  facet normal 0 0 -1
    outer loop
      vertex -17.1176 3.63845 0
      vertex -2.44537 0.519779 0
      vertex -2.5 0 0
    endloop
  endfacet
  facet normal -0 0 -1
    outer loop
      vertex -2.02254 -1.46946 0
      vertex -14.1578 -10.2862 0
      vertex -2.28386 -1.01684 0
    endloop
  endfacet
  facet normal 0 0 -1
    outer loop
      vertex -0.772542 2.37764 0
      vertex -5.4078 16.6435 0
      vertex -1.82925 17.4041 0
    endloop
  endfacet
  facet normal 0 0 -1
    outer loop
      vertex -1.25 2.16506 0
      vertex -8.75 15.1554 0
      vertex -5.4078 16.6435 0
    endloop
  endfacet
  facet normal 0 0 -1
    outer loop
      vertex -15.987 -7.11789 0
      vertex -2.28386 -1.01684 0
      vertex -14.1578 -10.2862 0
    endloop
  endfacet
  facet normal -0 0 -1
    outer loop
      vertex -2.28386 -1.01684 0
      vertex -15.987 -7.11789 0
      vertex -2.44537 -0.519779 0
    endloop
  endfacet
  facet normal 0 0 -1
    outer loop
      vertex -1.67283 1.85786 0
      vertex -11.7098 13.005 0
      vertex -8.75 15.1554 0
    endloop
  endfacet
  facet normal 0 0 -1
    outer loop
      vertex -17.1176 -3.63845 0
      vertex -2.44537 -0.519779 0
      vertex -15.987 -7.11789 0
    endloop
  endfacet
  facet normal 0 0 -1
    outer loop
      vertex -2.02254 1.46946 0
      vertex -14.1578 10.2862 0
      vertex -11.7098 13.005 0
    endloop
  endfacet
  facet normal -0 0 -1
    outer loop
      vertex -2.44537 -0.519779 0
      vertex -17.1176 -3.63845 0
      vertex -2.5 0 0
    endloop
  endfacet
  facet normal 0 0 -1
    outer loop
      vertex -2.28386 1.01684 0
      vertex -15.987 7.11789 0
      vertex -14.1578 10.2862 0
    endloop
  endfacet
  facet normal 0 0 -1
    outer loop
      vertex -17.5 0 0
      vertex -2.5 0 0
      vertex -17.1176 -3.63845 0
    endloop
  endfacet
  facet normal 0 0 -1
    outer loop
      vertex -2.44537 0.519779 0
      vertex -17.1176 3.63845 0
      vertex -15.987 7.11789 0
    endloop
  endfacet
  facet normal 0 0 -1
    outer loop
      vertex -2.5 0 0
      vertex -17.5 0 0
      vertex -17.1176 3.63845 0
    endloop
  endfacet
  facet normal -0.951057 -0.309017 0
    outer loop
      vertex -15.987 -7.11789 0
      vertex -17.1176 -3.63845 2
      vertex -17.1176 -3.63845 0
    endloop
  endfacet
  facet normal -0.951057 -0.309017 0
    outer loop
      vertex -17.1176 -3.63845 2
      vertex -15.987 -7.11789 0
      vertex -15.987 -7.11789 2
    endloop
  endfacet
  facet normal 0.743145 -0.669131 0
    outer loop
      vertex 11.7098 -13.005 2
      vertex 14.1578 -10.2862 0
      vertex 14.1578 -10.2862 2
    endloop
  endfacet
  facet normal 0.743145 -0.669131 0
    outer loop
      vertex 14.1578 -10.2862 0
      vertex 11.7098 -13.005 2
      vertex 11.7098 -13.005 0
    endloop
  endfacet
  facet normal -0.207911 -0.978148 0
    outer loop
      vertex -5.4078 -16.6435 0
      vertex -1.82925 -17.4041 2
      vertex -5.4078 -16.6435 2
    endloop
  endfacet
  facet normal -0.207911 -0.978148 -0
    outer loop
      vertex -1.82925 -17.4041 2
      vertex -5.4078 -16.6435 0
      vertex -1.82925 -17.4041 0
    endloop
  endfacet
  facet normal 0.994522 0.104529 0
    outer loop
      vertex 10 0 11
      vertex 9.78148 2.07912 2
      vertex 9.78148 2.07912 11
    endloop
  endfacet
  facet normal 0.994522 0.104529 0
    outer loop
      vertex 9.78148 2.07912 2
      vertex 10 0 11
      vertex 10 0 2
    endloop
  endfacet
  facet normal -0.994522 0.104529 0
    outer loop
      vertex -10 0 2
      vertex -9.78148 2.07912 11
      vertex -9.78148 2.07912 2
    endloop
  endfacet
  facet normal -0.994522 0.104529 0
    outer loop
      vertex -9.78148 2.07912 11
      vertex -10 0 2
      vertex -10 0 11
    endloop
  endfacet
  facet normal 0 1 -0
    outer loop
      vertex 1.04528 9.94522 2
      vertex -1.04528 9.94522 11
      vertex 1.04528 9.94522 11
    endloop
  endfacet
  facet normal 0 1 0
    outer loop
      vertex -1.04528 9.94522 11
      vertex 1.04528 9.94522 2
      vertex -1.04528 9.94522 2
    endloop
  endfacet
  facet normal 0 -1 0
    outer loop
      vertex -1.04528 -9.94522 2
      vertex 1.04528 -9.94522 11
      vertex -1.04528 -9.94522 11
    endloop
  endfacet
  facet normal 0 -1 -0
    outer loop
      vertex 1.04528 -9.94522 11
      vertex -1.04528 -9.94522 2
      vertex 1.04528 -9.94522 2
    endloop
  endfacet
  facet normal 0.587785 0.809017 -0
    outer loop
      vertex 6.69131 7.43145 2
      vertex 5 8.66025 11
      vertex 6.69131 7.43145 11
    endloop
  endfacet
  facet normal 0.587785 0.809017 0
    outer loop
      vertex 5 8.66025 11
      vertex 6.69131 7.43145 2
      vertex 5 8.66025 2
    endloop
  endfacet
  facet normal 0.406737 0.913545 -0
    outer loop
      vertex 5 8.66025 2
      vertex 3.09017 9.51056 11
      vertex 5 8.66025 11
    endloop
  endfacet
  facet normal 0.406737 0.913545 0
    outer loop
      vertex 3.09017 9.51056 11
      vertex 5 8.66025 2
      vertex 3.09017 9.51056 2
    endloop
  endfacet
  facet normal -0.743145 0.669131 0
    outer loop
      vertex -8.09017 5.87785 2
      vertex -6.69131 7.43145 11
      vertex -6.69131 7.43145 2
    endloop
  endfacet
  facet normal -0.743145 0.669131 0
    outer loop
      vertex -6.69131 7.43145 11
      vertex -8.09017 5.87785 2
      vertex -8.09017 5.87785 11
    endloop
  endfacet
  facet normal -0.866026 0.5 0
    outer loop
      vertex -9.13545 4.06737 2
      vertex -8.09017 5.87785 11
      vertex -8.09017 5.87785 2
    endloop
  endfacet
  facet normal -0.866026 0.5 0
    outer loop
      vertex -8.09017 5.87785 11
      vertex -9.13545 4.06737 2
      vertex -9.13545 4.06737 11
    endloop
  endfacet
  facet normal -0.406737 0.913545 0
    outer loop
      vertex -3.09017 9.51056 2
      vertex -5 8.66025 11
      vertex -3.09017 9.51056 11
    endloop
  endfacet
  facet normal -0.406737 0.913545 0
    outer loop
      vertex -5 8.66025 11
      vertex -3.09017 9.51056 2
      vertex -5 8.66025 2
    endloop
  endfacet
  facet normal 0.951057 -0.309017 0
    outer loop
      vertex 9.13545 -4.06737 11
      vertex 9.78148 -2.07912 2
      vertex 9.78148 -2.07912 11
    endloop
  endfacet
  facet normal 0.951057 -0.309017 0
    outer loop
      vertex 9.78148 -2.07912 2
      vertex 9.13545 -4.06737 11
      vertex 9.13545 -4.06737 2
    endloop
  endfacet
  facet normal 0.866026 0.5 0
    outer loop
      vertex 9.13545 4.06737 11
      vertex 8.09017 5.87785 2
      vertex 8.09017 5.87785 11
    endloop
  endfacet
  facet normal 0.866026 0.5 0
    outer loop
      vertex 8.09017 5.87785 2
      vertex 9.13545 4.06737 11
      vertex 9.13545 4.06737 2
    endloop
  endfacet
  facet normal 0.951057 0.309017 0
    outer loop
      vertex 9.78148 2.07912 11
      vertex 9.13545 4.06737 2
      vertex 9.13545 4.06737 11
    endloop
  endfacet
  facet normal 0.951057 0.309017 0
    outer loop
      vertex 9.13545 4.06737 2
      vertex 9.78148 2.07912 11
      vertex 9.78148 2.07912 2
    endloop
  endfacet
  facet normal 0.743145 0.669131 0
    outer loop
      vertex 8.09017 5.87785 11
      vertex 6.69131 7.43145 2
      vertex 6.69131 7.43145 11
    endloop
  endfacet
  facet normal 0.743145 0.669131 0
    outer loop
      vertex 6.69131 7.43145 2
      vertex 8.09017 5.87785 11
      vertex 8.09017 5.87785 2
    endloop
  endfacet
  facet normal 0.207911 0.978148 -0
    outer loop
      vertex 3.09017 9.51056 2
      vertex 1.04528 9.94522 11
      vertex 3.09017 9.51056 11
    endloop
  endfacet
  facet normal 0.207911 0.978148 0
    outer loop
      vertex 1.04528 9.94522 11
      vertex 3.09017 9.51056 2
      vertex 1.04528 9.94522 2
    endloop
  endfacet
  facet normal -0.951057 0.309017 0
    outer loop
      vertex -9.78148 2.07912 2
      vertex -9.13545 4.06737 11
      vertex -9.13545 4.06737 2
    endloop
  endfacet
  facet normal -0.951057 0.309017 0
    outer loop
      vertex -9.13545 4.06737 11
      vertex -9.78148 2.07912 2
      vertex -9.78148 2.07912 11
    endloop
  endfacet
  facet normal 0 0 -1
    outer loop
      vertex 10 0 11
      vertex 17.5 0 11
      vertex 17.1176 -3.63845 11
    endloop
  endfacet
  facet normal 0 0 -1
    outer loop
      vertex 9.78148 -2.07912 11
      vertex 17.1176 -3.63845 11
      vertex 15.987 -7.11789 11
    endloop
  endfacet
  facet normal 0 0 -1
    outer loop
      vertex 17.5 0 11
      vertex 10 0 11
      vertex 17.1176 3.63845 11
    endloop
  endfacet
  facet normal 0 0 -1
    outer loop
      vertex 9.13545 -4.06737 11
      vertex 15.987 -7.11789 11
      vertex 14.1578 -10.2862 11
    endloop
  endfacet
  facet normal 0 0 -1
    outer loop
      vertex 9.78148 2.07912 11
      vertex 17.1176 3.63845 11
      vertex 10 0 11
    endloop
  endfacet
  facet normal 0 0 -1
    outer loop
      vertex 8.09017 -5.87785 11
      vertex 14.1578 -10.2862 11
      vertex 11.7098 -13.005 11
    endloop
  endfacet
  facet normal -0 0 -1
    outer loop
      vertex 17.1176 3.63845 11
      vertex 9.78148 2.07912 11
      vertex 15.987 7.11789 11
    endloop
  endfacet
  facet normal 0 0 -1
    outer loop
      vertex 9.13545 4.06737 11
      vertex 15.987 7.11789 11
      vertex 9.78148 2.07912 11
    endloop
  endfacet
  facet normal 0 0 -1
    outer loop
      vertex 17.1176 -3.63845 11
      vertex 9.78148 -2.07912 11
      vertex 10 0 11
    endloop
  endfacet
  facet normal 0 0 -1
    outer loop
      vertex 15.987 -7.11789 11
      vertex 9.13545 -4.06737 11
      vertex 9.78148 -2.07912 11
    endloop
  endfacet
  facet normal 0 0 -1
    outer loop
      vertex 6.69131 -7.43145 11
      vertex 11.7098 -13.005 11
      vertex 8.75 -15.1554 11
    endloop
  endfacet
  facet normal 0 0 -1
    outer loop
      vertex 14.1578 -10.2862 11
      vertex 8.09017 -5.87785 11
      vertex 9.13545 -4.06737 11
    endloop
  endfacet
  facet normal 0 0 -1
    outer loop
      vertex 11.7098 -13.005 11
      vertex 6.69131 -7.43145 11
      vertex 8.09017 -5.87785 11
    endloop
  endfacet
  facet normal 0 0 -1
    outer loop
      vertex 5 -8.66025 11
      vertex 8.75 -15.1554 11
      vertex 5.4078 -16.6435 11
    endloop
  endfacet
  facet normal 0 0 -1
    outer loop
      vertex 8.75 -15.1554 11
      vertex 5 -8.66025 11
      vertex 6.69131 -7.43145 11
    endloop
  endfacet
  facet normal 0 0 -1
    outer loop
      vertex 5.4078 -16.6435 11
      vertex 3.09017 -9.51056 11
      vertex 5 -8.66025 11
    endloop
  endfacet
  facet normal 0 0 -1
    outer loop
      vertex 1.82925 -17.4041 11
      vertex 3.09017 -9.51056 11
      vertex 5.4078 -16.6435 11
    endloop
  endfacet
  facet normal 0 0 -1
    outer loop
      vertex 1.82925 -17.4041 11
      vertex 1.04528 -9.94522 11
      vertex 3.09017 -9.51056 11
    endloop
  endfacet
  facet normal 0 0 -1
    outer loop
      vertex 1.82925 -17.4041 11
      vertex -1.04528 -9.94522 11
      vertex 1.04528 -9.94522 11
    endloop
  endfacet
  facet normal 0 0 -1
    outer loop
      vertex -1.82925 -17.4041 11
      vertex -1.04528 -9.94522 11
      vertex 1.82925 -17.4041 11
    endloop
  endfacet
  facet normal 0 0 -1
    outer loop
      vertex -1.82925 -17.4041 11
      vertex -3.09017 -9.51056 11
      vertex -1.04528 -9.94522 11
    endloop
  endfacet
  facet normal 0 0 -1
    outer loop
      vertex -5.4078 -16.6435 11
      vertex -3.09017 -9.51056 11
      vertex -1.82925 -17.4041 11
    endloop
  endfacet
  facet normal -0 0 -1
    outer loop
      vertex -3.09017 -9.51056 11
      vertex -5.4078 -16.6435 11
      vertex -5 -8.66025 11
    endloop
  endfacet
  facet normal 0 0 -1
    outer loop
      vertex -8.75 -15.1554 11
      vertex -5 -8.66025 11
      vertex -5.4078 -16.6435 11
    endloop
  endfacet
  facet normal -0 0 -1
    outer loop
      vertex -5 -8.66025 11
      vertex -8.75 -15.1554 11
      vertex -6.69131 -7.43145 11
    endloop
  endfacet
  facet normal 0 0 -1
    outer loop
      vertex -11.7098 -13.005 11
      vertex -6.69131 -7.43145 11
      vertex -8.75 -15.1554 11
    endloop
  endfacet
  facet normal -0 0 -1
    outer loop
      vertex -6.69131 -7.43145 11
      vertex -11.7098 -13.005 11
      vertex -8.09017 -5.87785 11
    endloop
  endfacet
  facet normal 0 0 -1
    outer loop
      vertex -14.1578 -10.2862 11
      vertex -8.09017 -5.87785 11
      vertex -11.7098 -13.005 11
    endloop
  endfacet
  facet normal -0 0 -1
    outer loop
      vertex -8.09017 -5.87785 11
      vertex -14.1578 -10.2862 11
      vertex -9.13545 -4.06737 11
    endloop
  endfacet
  facet normal 0 0 -1
    outer loop
      vertex -15.987 -7.11789 11
      vertex -9.13545 -4.06737 11
      vertex -14.1578 -10.2862 11
    endloop
  endfacet
  facet normal -0 0 -1
    outer loop
      vertex 15.987 7.11789 11
      vertex 9.13545 4.06737 11
      vertex 14.1578 10.2862 11
    endloop
  endfacet
  facet normal 0 0 -1
    outer loop
      vertex 8.09017 5.87785 11
      vertex 14.1578 10.2862 11
      vertex 9.13545 4.06737 11
    endloop
  endfacet
  facet normal -0 0 -1
    outer loop
      vertex 14.1578 10.2862 11
      vertex 8.09017 5.87785 11
      vertex 11.7098 13.005 11
    endloop
  endfacet
  facet normal 0 0 -1
    outer loop
      vertex 6.69131 7.43145 11
      vertex 11.7098 13.005 11
      vertex 8.09017 5.87785 11
    endloop
  endfacet
  facet normal -0 0 -1
    outer loop
      vertex 11.7098 13.005 11
      vertex 6.69131 7.43145 11
      vertex 8.75 15.1554 11
    endloop
  endfacet
  facet normal 0 0 -1
    outer loop
      vertex 5 8.66025 11
      vertex 8.75 15.1554 11
      vertex 6.69131 7.43145 11
    endloop
  endfacet
  facet normal -0 0 -1
    outer loop
      vertex 8.75 15.1554 11
      vertex 5 8.66025 11
      vertex 5.4078 16.6435 11
    endloop
  endfacet
  facet normal 0 0 -1
    outer loop
      vertex 3.09017 9.51056 11
      vertex 5.4078 16.6435 11
      vertex 5 8.66025 11
    endloop
  endfacet
  facet normal 0 0 -1
    outer loop
      vertex 3.09017 9.51056 11
      vertex 1.82925 17.4041 11
      vertex 5.4078 16.6435 11
    endloop
  endfacet
  facet normal 0 0 -1
    outer loop
      vertex 1.04528 9.94522 11
      vertex 1.82925 17.4041 11
      vertex 3.09017 9.51056 11
    endloop
  endfacet
  facet normal 0 0 -1
    outer loop
      vertex -1.04528 9.94522 11
      vertex 1.82925 17.4041 11
      vertex 1.04528 9.94522 11
    endloop
  endfacet
  facet normal 0 0 -1
    outer loop
      vertex -1.04528 9.94522 11
      vertex -1.82925 17.4041 11
      vertex 1.82925 17.4041 11
    endloop
  endfacet
  facet normal 0 0 -1
    outer loop
      vertex -3.09017 9.51056 11
      vertex -1.82925 17.4041 11
      vertex -1.04528 9.94522 11
    endloop
  endfacet
  facet normal 0 0 -1
    outer loop
      vertex -5.4078 16.6435 11
      vertex -3.09017 9.51056 11
      vertex -5 8.66025 11
    endloop
  endfacet
  facet normal 0 0 -1
    outer loop
      vertex -3.09017 9.51056 11
      vertex -5.4078 16.6435 11
      vertex -1.82925 17.4041 11
    endloop
  endfacet
  facet normal 0 0 -1
    outer loop
      vertex -8.75 15.1554 11
      vertex -5 8.66025 11
      vertex -6.69131 7.43145 11
    endloop
  endfacet
  facet normal 0 0 -1
    outer loop
      vertex -11.7098 13.005 11
      vertex -6.69131 7.43145 11
      vertex -8.09017 5.87785 11
    endloop
  endfacet
  facet normal 0 0 -1
    outer loop
      vertex -5 8.66025 11
      vertex -8.75 15.1554 11
      vertex -5.4078 16.6435 11
    endloop
  endfacet
  facet normal 0 0 -1
    outer loop
      vertex -14.1578 10.2862 11
      vertex -8.09017 5.87785 11
      vertex -9.13545 4.06737 11
    endloop
  endfacet
  facet normal 0 0 -1
    outer loop
      vertex -15.987 7.11789 11
      vertex -9.13545 4.06737 11
      vertex -9.78148 2.07912 11
    endloop
  endfacet
  facet normal 0 0 -1
    outer loop
      vertex -17.1176 3.63845 11
      vertex -9.78148 2.07912 11
      vertex -10 0 11
    endloop
  endfacet
  facet normal -0 0 -1
    outer loop
      vertex -9.13545 -4.06737 11
      vertex -15.987 -7.11789 11
      vertex -9.78148 -2.07912 11
    endloop
  endfacet
  facet normal 0 0 -1
    outer loop
      vertex -6.69131 7.43145 11
      vertex -11.7098 13.005 11
      vertex -8.75 15.1554 11
    endloop
  endfacet
  facet normal 0 0 -1
    outer loop
      vertex -17.1176 -3.63845 11
      vertex -9.78148 -2.07912 11
      vertex -15.987 -7.11789 11
    endloop
  endfacet
  facet normal 0 0 -1
    outer loop
      vertex -8.09017 5.87785 11
      vertex -14.1578 10.2862 11
      vertex -11.7098 13.005 11
    endloop
  endfacet
  facet normal -0 0 -1
    outer loop
      vertex -9.78148 -2.07912 11
      vertex -17.1176 -3.63845 11
      vertex -10 0 11
    endloop
  endfacet
  facet normal 0 0 -1
    outer loop
      vertex -9.13545 4.06737 11
      vertex -15.987 7.11789 11
      vertex -14.1578 10.2862 11
    endloop
  endfacet
  facet normal 0 0 -1
    outer loop
      vertex -17.5 0 11
      vertex -10 0 11
      vertex -17.1176 -3.63845 11
    endloop
  endfacet
  facet normal 0 0 -1
    outer loop
      vertex -9.78148 2.07912 11
      vertex -17.1176 3.63845 11
      vertex -15.987 7.11789 11
    endloop
  endfacet
  facet normal 0 0 -1
    outer loop
      vertex -10 0 11
      vertex -17.5 0 11
      vertex -17.1176 3.63845 11
    endloop
  endfacet
  facet normal -0.587785 0.809017 0
    outer loop
      vertex -5 8.66025 2
      vertex -6.69131 7.43145 11
      vertex -5 8.66025 11
    endloop
  endfacet
  facet normal -0.587785 0.809017 0
    outer loop
      vertex -6.69131 7.43145 11
      vertex -5 8.66025 2
      vertex -6.69131 7.43145 2
    endloop
  endfacet
  facet normal -0.207911 0.978148 0
    outer loop
      vertex -1.04528 9.94522 2
      vertex -3.09017 9.51056 11
      vertex -1.04528 9.94522 11
    endloop
  endfacet
  facet normal -0.207911 0.978148 0
    outer loop
      vertex -3.09017 9.51056 11
      vertex -1.04528 9.94522 2
      vertex -3.09017 9.51056 2
    endloop
  endfacet
  facet normal 0.994522 -0.104529 0
    outer loop
      vertex 9.78148 -2.07912 11
      vertex 10 0 2
      vertex 10 0 11
    endloop
  endfacet
  facet normal 0.994522 -0.104529 0
    outer loop
      vertex 10 0 2
      vertex 9.78148 -2.07912 11
      vertex 9.78148 -2.07912 2
    endloop
  endfacet
  facet normal 0.207911 -0.978148 0
    outer loop
      vertex 1.04528 -9.94522 2
      vertex 3.09017 -9.51056 11
      vertex 1.04528 -9.94522 11
    endloop
  endfacet
  facet normal 0.207911 -0.978148 0
    outer loop
      vertex 3.09017 -9.51056 11
      vertex 1.04528 -9.94522 2
      vertex 3.09017 -9.51056 2
    endloop
  endfacet
  facet normal 0.866026 -0.5 0
    outer loop
      vertex 8.09017 -5.87785 11
      vertex 9.13545 -4.06737 2
      vertex 9.13545 -4.06737 11
    endloop
  endfacet
  facet normal 0.866026 -0.5 0
    outer loop
      vertex 9.13545 -4.06737 2
      vertex 8.09017 -5.87785 11
      vertex 8.09017 -5.87785 2
    endloop
  endfacet
  facet normal -0.866026 -0.5 0
    outer loop
      vertex -8.09017 -5.87785 2
      vertex -9.13545 -4.06737 11
      vertex -9.13545 -4.06737 2
    endloop
  endfacet
  facet normal -0.866026 -0.5 0
    outer loop
      vertex -9.13545 -4.06737 11
      vertex -8.09017 -5.87785 2
      vertex -8.09017 -5.87785 11
    endloop
  endfacet
  facet normal -0.994522 -0.104529 0
    outer loop
      vertex -9.78148 -2.07912 2
      vertex -10 0 11
      vertex -10 0 2
    endloop
  endfacet
  facet normal -0.994522 -0.104529 0
    outer loop
      vertex -10 0 11
      vertex -9.78148 -2.07912 2
      vertex -9.78148 -2.07912 11
    endloop
  endfacet
  facet normal 0.587785 -0.809017 0
    outer loop
      vertex 5 -8.66025 2
      vertex 6.69131 -7.43145 11
      vertex 5 -8.66025 11
    endloop
  endfacet
  facet normal 0.587785 -0.809017 0
    outer loop
      vertex 6.69131 -7.43145 11
      vertex 5 -8.66025 2
      vertex 6.69131 -7.43145 2
    endloop
  endfacet
  facet normal 0.406737 -0.913545 0
    outer loop
      vertex 3.09017 -9.51056 2
      vertex 5 -8.66025 11
      vertex 3.09017 -9.51056 11
    endloop
  endfacet
  facet normal 0.406737 -0.913545 0
    outer loop
      vertex 5 -8.66025 11
      vertex 3.09017 -9.51056 2
      vertex 5 -8.66025 2
    endloop
  endfacet
  facet normal -0.207911 -0.978148 0
    outer loop
      vertex -3.09017 -9.51056 2
      vertex -1.04528 -9.94522 11
      vertex -3.09017 -9.51056 11
    endloop
  endfacet
  facet normal -0.207911 -0.978148 -0
    outer loop
      vertex -1.04528 -9.94522 11
      vertex -3.09017 -9.51056 2
      vertex -1.04528 -9.94522 2
    endloop
  endfacet
  facet normal -0.743145 -0.669131 0
    outer loop
      vertex -6.69131 -7.43145 2
      vertex -8.09017 -5.87785 11
      vertex -8.09017 -5.87785 2
    endloop
  endfacet
  facet normal -0.743145 -0.669131 0
    outer loop
      vertex -8.09017 -5.87785 11
      vertex -6.69131 -7.43145 2
      vertex -6.69131 -7.43145 11
    endloop
  endfacet
  facet normal -0.951057 -0.309017 0
    outer loop
      vertex -9.13545 -4.06737 2
      vertex -9.78148 -2.07912 11
      vertex -9.78148 -2.07912 2
    endloop
  endfacet
  facet normal -0.951057 -0.309017 0
    outer loop
      vertex -9.78148 -2.07912 11
      vertex -9.13545 -4.06737 2
      vertex -9.13545 -4.06737 11
    endloop
  endfacet
  facet normal 0.743145 -0.669131 0
    outer loop
      vertex 6.69131 -7.43145 11
      vertex 8.09017 -5.87785 2
      vertex 8.09017 -5.87785 11
    endloop
  endfacet
  facet normal 0.743145 -0.669131 0
    outer loop
      vertex 8.09017 -5.87785 2
      vertex 6.69131 -7.43145 11
      vertex 6.69131 -7.43145 2
    endloop
  endfacet
  facet normal -0.406737 -0.913545 0
    outer loop
      vertex -5 -8.66025 2
      vertex -3.09017 -9.51056 11
      vertex -5 -8.66025 11
    endloop
  endfacet
  facet normal -0.406737 -0.913545 -0
    outer loop
      vertex -3.09017 -9.51056 11
      vertex -5 -8.66025 2
      vertex -3.09017 -9.51056 2
    endloop
  endfacet
  facet normal -0.587785 -0.809017 0
    outer loop
      vertex -6.69131 -7.43145 2
      vertex -5 -8.66025 11
      vertex -6.69131 -7.43145 11
    endloop
  endfacet
  facet normal -0.587785 -0.809017 -0
    outer loop
      vertex -5 -8.66025 11
      vertex -6.69131 -7.43145 2
      vertex -5 -8.66025 2
    endloop
  endfacet
  facet normal 0.994522 0.104529 0
    outer loop
      vertex 17.5 0 13
      vertex 17.1176 3.63845 11
      vertex 17.1176 3.63845 13
    endloop
  endfacet
  facet normal 0.994522 0.104529 0
    outer loop
      vertex 17.1176 3.63845 11
      vertex 17.5 0 13
      vertex 17.5 0 11
    endloop
  endfacet
  facet normal -0.994522 0.104529 0
    outer loop
      vertex -17.5 0 11
      vertex -17.1176 3.63845 13
      vertex -17.1176 3.63845 11
    endloop
  endfacet
  facet normal -0.994522 0.104529 0
    outer loop
      vertex -17.1176 3.63845 13
      vertex -17.5 0 11
      vertex -17.5 0 13
    endloop
  endfacet
  facet normal 0 1 -0
    outer loop
      vertex 1.82925 17.4041 11
      vertex -1.82925 17.4041 13
      vertex 1.82925 17.4041 13
    endloop
  endfacet
  facet normal 0 1 0
    outer loop
      vertex -1.82925 17.4041 13
      vertex 1.82925 17.4041 11
      vertex -1.82925 17.4041 11
    endloop
  endfacet
  facet normal 0 -1 0
    outer loop
      vertex -1.82925 -17.4041 11
      vertex 1.82925 -17.4041 13
      vertex -1.82925 -17.4041 13
    endloop
  endfacet
  facet normal 0 -1 -0
    outer loop
      vertex 1.82925 -17.4041 13
      vertex -1.82925 -17.4041 11
      vertex 1.82925 -17.4041 11
    endloop
  endfacet
  facet normal 0.587785 0.809017 -0
    outer loop
      vertex 11.7098 13.005 11
      vertex 8.75 15.1554 13
      vertex 11.7098 13.005 13
    endloop
  endfacet
  facet normal 0.587785 0.809017 0
    outer loop
      vertex 8.75 15.1554 13
      vertex 11.7098 13.005 11
      vertex 8.75 15.1554 11
    endloop
  endfacet
  facet normal 0.406737 0.913545 -0
    outer loop
      vertex 8.75 15.1554 11
      vertex 5.4078 16.6435 13
      vertex 8.75 15.1554 13
    endloop
  endfacet
  facet normal 0.406737 0.913545 0
    outer loop
      vertex 5.4078 16.6435 13
      vertex 8.75 15.1554 11
      vertex 5.4078 16.6435 11
    endloop
  endfacet
  facet normal -0.587785 0.809017 0
    outer loop
      vertex -8.75 15.1554 11
      vertex -11.7098 13.005 13
      vertex -8.75 15.1554 13
    endloop
  endfacet
  facet normal -0.587785 0.809017 0
    outer loop
      vertex -11.7098 13.005 13
      vertex -8.75 15.1554 11
      vertex -11.7098 13.005 11
    endloop
  endfacet
  facet normal -0.207911 0.978148 0
    outer loop
      vertex -1.82925 17.4041 11
      vertex -5.4078 16.6435 13
      vertex -1.82925 17.4041 13
    endloop
  endfacet
  facet normal -0.207911 0.978148 0
    outer loop
      vertex -5.4078 16.6435 13
      vertex -1.82925 17.4041 11
      vertex -5.4078 16.6435 11
    endloop
  endfacet
  facet normal 0.951057 -0.309017 0
    outer loop
      vertex 15.987 -7.11789 13
      vertex 17.1176 -3.63845 11
      vertex 17.1176 -3.63845 13
    endloop
  endfacet
  facet normal 0.951057 -0.309017 0
    outer loop
      vertex 17.1176 -3.63845 11
      vertex 15.987 -7.11789 13
      vertex 15.987 -7.11789 11
    endloop
  endfacet
  facet normal 0.866025 0.5 0
    outer loop
      vertex 15.987 7.11789 13
      vertex 14.1578 10.2862 11
      vertex 14.1578 10.2862 13
    endloop
  endfacet
  facet normal 0.866025 0.5 0
    outer loop
      vertex 14.1578 10.2862 11
      vertex 15.987 7.11789 13
      vertex 15.987 7.11789 11
    endloop
  endfacet
  facet normal 0.951057 0.309017 0
    outer loop
      vertex 17.1176 3.63845 13
      vertex 15.987 7.11789 11
      vertex 15.987 7.11789 13
    endloop
  endfacet
  facet normal 0.951057 0.309017 0
    outer loop
      vertex 15.987 7.11789 11
      vertex 17.1176 3.63845 13
      vertex 17.1176 3.63845 11
    endloop
  endfacet
  facet normal 0.743145 0.669131 0
    outer loop
      vertex 14.1578 10.2862 13
      vertex 11.7098 13.005 11
      vertex 11.7098 13.005 13
    endloop
  endfacet
  facet normal 0.743145 0.669131 0
    outer loop
      vertex 11.7098 13.005 11
      vertex 14.1578 10.2862 13
      vertex 14.1578 10.2862 11
    endloop
  endfacet
  facet normal 0.207911 0.978148 -0
    outer loop
      vertex 5.4078 16.6435 11
      vertex 1.82925 17.4041 13
      vertex 5.4078 16.6435 13
    endloop
  endfacet
  facet normal 0.207911 0.978148 0
    outer loop
      vertex 1.82925 17.4041 13
      vertex 5.4078 16.6435 11
      vertex 1.82925 17.4041 11
    endloop
  endfacet
  facet normal -0.866025 0.5 0
    outer loop
      vertex -15.987 7.11789 11
      vertex -14.1578 10.2862 13
      vertex -14.1578 10.2862 11
    endloop
  endfacet
  facet normal -0.866025 0.5 0
    outer loop
      vertex -14.1578 10.2862 13
      vertex -15.987 7.11789 11
      vertex -15.987 7.11789 13
    endloop
  endfacet
  facet normal -0.743145 0.669131 0
    outer loop
      vertex -14.1578 10.2862 11
      vertex -11.7098 13.005 13
      vertex -11.7098 13.005 11
    endloop
  endfacet
  facet normal -0.743145 0.669131 0
    outer loop
      vertex -11.7098 13.005 13
      vertex -14.1578 10.2862 11
      vertex -14.1578 10.2862 13
    endloop
  endfacet
  facet normal -0.951057 0.309017 0
    outer loop
      vertex -17.1176 3.63845 11
      vertex -15.987 7.11789 13
      vertex -15.987 7.11789 11
    endloop
  endfacet
  facet normal -0.951057 0.309017 0
    outer loop
      vertex -15.987 7.11789 13
      vertex -17.1176 3.63845 11
      vertex -17.1176 3.63845 13
    endloop
  endfacet
  facet normal 0 0 1
    outer loop
      vertex 2.5 0 13
      vertex 17.5 0 13
      vertex 17.1176 3.63845 13
    endloop
  endfacet
  facet normal 0 0 1
    outer loop
      vertex 2.44537 0.519779 13
      vertex 17.1176 3.63845 13
      vertex 15.987 7.11789 13
    endloop
  endfacet
  facet normal 0 0 1
    outer loop
      vertex 17.5 0 13
      vertex 2.5 0 13
      vertex 17.1176 -3.63845 13
    endloop
  endfacet
  facet normal 0 0 1
    outer loop
      vertex 2.28386 1.01684 13
      vertex 15.987 7.11789 13
      vertex 14.1578 10.2862 13
    endloop
  endfacet
  facet normal -0 0 1
    outer loop
      vertex 2.44537 -0.519779 13
      vertex 17.1176 -3.63845 13
      vertex 2.5 0 13
    endloop
  endfacet
  facet normal 0 0 1
    outer loop
      vertex 2.02254 1.46946 13
      vertex 14.1578 10.2862 13
      vertex 11.7098 13.005 13
    endloop
  endfacet
  facet normal 0 0 1
    outer loop
      vertex 17.1176 -3.63845 13
      vertex 2.44537 -0.519779 13
      vertex 15.987 -7.11789 13
    endloop
  endfacet
  facet normal 0 0 1
    outer loop
      vertex 1.67283 1.85786 13
      vertex 11.7098 13.005 13
      vertex 8.75 15.1554 13
    endloop
  endfacet
  facet normal -0 0 1
    outer loop
      vertex 2.28386 -1.01684 13
      vertex 15.987 -7.11789 13
      vertex 2.44537 -0.519779 13
    endloop
  endfacet
  facet normal 0 0 1
    outer loop
      vertex 1.25 2.16506 13
      vertex 8.75 15.1554 13
      vertex 5.4078 16.6435 13
    endloop
  endfacet
  facet normal 0 0 1
    outer loop
      vertex 15.987 -7.11789 13
      vertex 2.28386 -1.01684 13
      vertex 14.1578 -10.2862 13
    endloop
  endfacet
  facet normal -0 0 1
    outer loop
      vertex 2.02254 -1.46946 13
      vertex 14.1578 -10.2862 13
      vertex 2.28386 -1.01684 13
    endloop
  endfacet
  facet normal 0 0 1
    outer loop
      vertex 17.1176 3.63845 13
      vertex 2.44537 0.519779 13
      vertex 2.5 0 13
    endloop
  endfacet
  facet normal 0 0 1
    outer loop
      vertex 15.987 7.11789 13
      vertex 2.28386 1.01684 13
      vertex 2.44537 0.519779 13
    endloop
  endfacet
  facet normal 0 0 1
    outer loop
      vertex 14.1578 10.2862 13
      vertex 2.02254 1.46946 13
      vertex 2.28386 1.01684 13
    endloop
  endfacet
  facet normal 0 0 1
    outer loop
      vertex 0.772542 2.37764 13
      vertex 5.4078 16.6435 13
      vertex 1.82925 17.4041 13
    endloop
  endfacet
  facet normal 0 0 1
    outer loop
      vertex 11.7098 13.005 13
      vertex 1.67283 1.85786 13
      vertex 2.02254 1.46946 13
    endloop
  endfacet
  facet normal 0 0 1
    outer loop
      vertex 8.75 15.1554 13
      vertex 1.25 2.16506 13
      vertex 1.67283 1.85786 13
    endloop
  endfacet
  facet normal 0 0 1
    outer loop
      vertex 5.4078 16.6435 13
      vertex 0.772542 2.37764 13
      vertex 1.25 2.16506 13
    endloop
  endfacet
  facet normal 0 0 1
    outer loop
      vertex 1.82925 17.4041 13
      vertex 0.261321 2.4863 13
      vertex 0.772542 2.37764 13
    endloop
  endfacet
  facet normal 0 0 1
    outer loop
      vertex 1.82925 17.4041 13
      vertex -0.261321 2.4863 13
      vertex 0.261321 2.4863 13
    endloop
  endfacet
  facet normal -0 0 1
    outer loop
      vertex -1.82925 17.4041 13
      vertex -0.261321 2.4863 13
      vertex 1.82925 17.4041 13
    endloop
  endfacet
  facet normal 0 0 1
    outer loop
      vertex -0.261321 2.4863 13
      vertex -1.82925 17.4041 13
      vertex -0.772542 2.37764 13
    endloop
  endfacet
  facet normal -0 0 1
    outer loop
      vertex -5.4078 16.6435 13
      vertex -0.772542 2.37764 13
      vertex -1.82925 17.4041 13
    endloop
  endfacet
  facet normal 0 0 1
    outer loop
      vertex -0.772542 2.37764 13
      vertex -5.4078 16.6435 13
      vertex -1.25 2.16506 13
    endloop
  endfacet
  facet normal -0 0 1
    outer loop
      vertex -8.75 15.1554 13
      vertex -1.25 2.16506 13
      vertex -5.4078 16.6435 13
    endloop
  endfacet
  facet normal 0 0 1
    outer loop
      vertex -1.25 2.16506 13
      vertex -8.75 15.1554 13
      vertex -1.67283 1.85786 13
    endloop
  endfacet
  facet normal -0 0 1
    outer loop
      vertex -11.7098 13.005 13
      vertex -1.67283 1.85786 13
      vertex -8.75 15.1554 13
    endloop
  endfacet
  facet normal 0 0 1
    outer loop
      vertex -1.67283 1.85786 13
      vertex -11.7098 13.005 13
      vertex -2.02254 1.46946 13
    endloop
  endfacet
  facet normal -0 0 1
    outer loop
      vertex -14.1578 10.2862 13
      vertex -2.02254 1.46946 13
      vertex -11.7098 13.005 13
    endloop
  endfacet
  facet normal 0 0 1
    outer loop
      vertex 14.1578 -10.2862 13
      vertex 2.02254 -1.46946 13
      vertex 11.7098 -13.005 13
    endloop
  endfacet
  facet normal -0 0 1
    outer loop
      vertex 1.67283 -1.85786 13
      vertex 11.7098 -13.005 13
      vertex 2.02254 -1.46946 13
    endloop
  endfacet
  facet normal 0 0 1
    outer loop
      vertex 11.7098 -13.005 13
      vertex 1.67283 -1.85786 13
      vertex 8.75 -15.1554 13
    endloop
  endfacet
  facet normal -0 0 1
    outer loop
      vertex 1.25 -2.16506 13
      vertex 8.75 -15.1554 13
      vertex 1.67283 -1.85786 13
    endloop
  endfacet
  facet normal 0 0 1
    outer loop
      vertex 8.75 -15.1554 13
      vertex 1.25 -2.16506 13
      vertex 5.4078 -16.6435 13
    endloop
  endfacet
  facet normal -0 0 1
    outer loop
      vertex 0.772542 -2.37764 13
      vertex 5.4078 -16.6435 13
      vertex 1.25 -2.16506 13
    endloop
  endfacet
  facet normal 0 0 1
    outer loop
      vertex 5.4078 -16.6435 13
      vertex 0.772542 -2.37764 13
      vertex 1.82925 -17.4041 13
    endloop
  endfacet
  facet normal -0 0 1
    outer loop
      vertex 0.261321 -2.4863 13
      vertex 1.82925 -17.4041 13
      vertex 0.772542 -2.37764 13
    endloop
  endfacet
  facet normal -0 0 1
    outer loop
      vertex -0.261321 -2.4863 13
      vertex 1.82925 -17.4041 13
      vertex 0.261321 -2.4863 13
    endloop
  endfacet
  facet normal 0 0 1
    outer loop
      vertex -1.82925 -17.4041 13
      vertex -0.261321 -2.4863 13
      vertex -0.772542 -2.37764 13
    endloop
  endfacet
  facet normal 0 0 1
    outer loop
      vertex -5.4078 -16.6435 13
      vertex -0.772542 -2.37764 13
      vertex -1.25 -2.16506 13
    endloop
  endfacet
  facet normal 0 0 1
    outer loop
      vertex -8.75 -15.1554 13
      vertex -1.25 -2.16506 13
      vertex -1.67283 -1.85786 13
    endloop
  endfacet
  facet normal 0 0 1
    outer loop
      vertex -0.261321 -2.4863 13
      vertex -1.82925 -17.4041 13
      vertex 1.82925 -17.4041 13
    endloop
  endfacet
  facet normal 0 0 1
    outer loop
      vertex -11.7098 -13.005 13
      vertex -1.67283 -1.85786 13
      vertex -2.02254 -1.46946 13
    endloop
  endfacet
  facet normal 0 0 1
    outer loop
      vertex -14.1578 -10.2862 13
      vertex -2.02254 -1.46946 13
      vertex -2.28386 -1.01684 13
    endloop
  endfacet
  facet normal 0 0 1
    outer loop
      vertex -15.987 -7.11789 13
      vertex -2.28386 -1.01684 13
      vertex -2.44537 -0.519779 13
    endloop
  endfacet
  facet normal 0 0 1
    outer loop
      vertex -17.1176 -3.63845 13
      vertex -2.44537 -0.519779 13
      vertex -2.5 0 13
    endloop
  endfacet
  facet normal 0 0 1
    outer loop
      vertex -2.02254 1.46946 13
      vertex -14.1578 10.2862 13
      vertex -2.28386 1.01684 13
    endloop
  endfacet
  facet normal 0 0 1
    outer loop
      vertex -0.772542 -2.37764 13
      vertex -5.4078 -16.6435 13
      vertex -1.82925 -17.4041 13
    endloop
  endfacet
  facet normal -0 0 1
    outer loop
      vertex -15.987 7.11789 13
      vertex -2.28386 1.01684 13
      vertex -14.1578 10.2862 13
    endloop
  endfacet
  facet normal 0 0 1
    outer loop
      vertex -1.25 -2.16506 13
      vertex -8.75 -15.1554 13
      vertex -5.4078 -16.6435 13
    endloop
  endfacet
  facet normal 0 0 1
    outer loop
      vertex -2.28386 1.01684 13
      vertex -15.987 7.11789 13
      vertex -2.44537 0.519779 13
    endloop
  endfacet
  facet normal 0 0 1
    outer loop
      vertex -1.67283 -1.85786 13
      vertex -11.7098 -13.005 13
      vertex -8.75 -15.1554 13
    endloop
  endfacet
  facet normal -0 0 1
    outer loop
      vertex -17.1176 3.63845 13
      vertex -2.44537 0.519779 13
      vertex -15.987 7.11789 13
    endloop
  endfacet
  facet normal 0 0 1
    outer loop
      vertex -2.02254 -1.46946 13
      vertex -14.1578 -10.2862 13
      vertex -11.7098 -13.005 13
    endloop
  endfacet
  facet normal 0 0 1
    outer loop
      vertex -2.44537 0.519779 13
      vertex -17.1176 3.63845 13
      vertex -2.5 0 13
    endloop
  endfacet
  facet normal 0 0 1
    outer loop
      vertex -2.28386 -1.01684 13
      vertex -15.987 -7.11789 13
      vertex -14.1578 -10.2862 13
    endloop
  endfacet
  facet normal 0 0 1
    outer loop
      vertex -17.5 0 13
      vertex -2.5 0 13
      vertex -17.1176 3.63845 13
    endloop
  endfacet
  facet normal 0 0 1
    outer loop
      vertex -2.44537 -0.519779 13
      vertex -17.1176 -3.63845 13
      vertex -15.987 -7.11789 13
    endloop
  endfacet
  facet normal 0 0 1
    outer loop
      vertex -2.5 0 13
      vertex -17.5 0 13
      vertex -17.1176 -3.63845 13
    endloop
  endfacet
  facet normal -0.406737 0.913545 0
    outer loop
      vertex -5.4078 16.6435 11
      vertex -8.75 15.1554 13
      vertex -5.4078 16.6435 13
    endloop
  endfacet
  facet normal -0.406737 0.913545 0
    outer loop
      vertex -8.75 15.1554 13
      vertex -5.4078 16.6435 11
      vertex -8.75 15.1554 11
    endloop
  endfacet
  facet normal 0.994522 -0.104529 0
    outer loop
      vertex 17.1176 -3.63845 13
      vertex 17.5 0 11
      vertex 17.5 0 13
    endloop
  endfacet
  facet normal 0.994522 -0.104529 0
    outer loop
      vertex 17.5 0 11
      vertex 17.1176 -3.63845 13
      vertex 17.1176 -3.63845 11
    endloop
  endfacet
  facet normal 0.207911 -0.978148 0
    outer loop
      vertex 1.82925 -17.4041 11
      vertex 5.4078 -16.6435 13
      vertex 1.82925 -17.4041 13
    endloop
  endfacet
  facet normal 0.207911 -0.978148 0
    outer loop
      vertex 5.4078 -16.6435 13
      vertex 1.82925 -17.4041 11
      vertex 5.4078 -16.6435 11
    endloop
  endfacet
  facet normal 0.866025 -0.5 0
    outer loop
      vertex 14.1578 -10.2862 13
      vertex 15.987 -7.11789 11
      vertex 15.987 -7.11789 13
    endloop
  endfacet
  facet normal 0.866025 -0.5 0
    outer loop
      vertex 15.987 -7.11789 11
      vertex 14.1578 -10.2862 13
      vertex 14.1578 -10.2862 11
    endloop
  endfacet
  facet normal -0.587785 -0.809017 0
    outer loop
      vertex -11.7098 -13.005 11
      vertex -8.75 -15.1554 13
      vertex -11.7098 -13.005 13
    endloop
  endfacet
  facet normal -0.587785 -0.809017 -0
    outer loop
      vertex -8.75 -15.1554 13
      vertex -11.7098 -13.005 11
      vertex -8.75 -15.1554 11
    endloop
  endfacet
  facet normal -0.866025 -0.5 0
    outer loop
      vertex -14.1578 -10.2862 11
      vertex -15.987 -7.11789 13
      vertex -15.987 -7.11789 11
    endloop
  endfacet
  facet normal -0.866025 -0.5 0
    outer loop
      vertex -15.987 -7.11789 13
      vertex -14.1578 -10.2862 11
      vertex -14.1578 -10.2862 13
    endloop
  endfacet
  facet normal -0.743145 -0.669131 0
    outer loop
      vertex -11.7098 -13.005 11
      vertex -14.1578 -10.2862 13
      vertex -14.1578 -10.2862 11
    endloop
  endfacet
  facet normal -0.743145 -0.669131 0
    outer loop
      vertex -14.1578 -10.2862 13
      vertex -11.7098 -13.005 11
      vertex -11.7098 -13.005 13
    endloop
  endfacet
  facet normal -0.994522 -0.104529 0
    outer loop
      vertex -17.1176 -3.63845 11
      vertex -17.5 0 13
      vertex -17.5 0 11
    endloop
  endfacet
  facet normal -0.994522 -0.104529 0
    outer loop
      vertex -17.5 0 13
      vertex -17.1176 -3.63845 11
      vertex -17.1176 -3.63845 13
    endloop
  endfacet
  facet normal 0.587785 -0.809017 0
    outer loop
      vertex 8.75 -15.1554 11
      vertex 11.7098 -13.005 13
      vertex 8.75 -15.1554 13
    endloop
  endfacet
  facet normal 0.587785 -0.809017 0
    outer loop
      vertex 11.7098 -13.005 13
      vertex 8.75 -15.1554 11
      vertex 11.7098 -13.005 11
    endloop
  endfacet
  facet normal 0.406737 -0.913545 0
    outer loop
      vertex 5.4078 -16.6435 11
      vertex 8.75 -15.1554 13
      vertex 5.4078 -16.6435 13
    endloop
  endfacet
  facet normal 0.406737 -0.913545 0
    outer loop
      vertex 8.75 -15.1554 13
      vertex 5.4078 -16.6435 11
      vertex 8.75 -15.1554 11
    endloop
  endfacet
  facet normal -0.951057 -0.309017 0
    outer loop
      vertex -15.987 -7.11789 11
      vertex -17.1176 -3.63845 13
      vertex -17.1176 -3.63845 11
    endloop
  endfacet
  facet normal -0.951057 -0.309017 0
    outer loop
      vertex -17.1176 -3.63845 13
      vertex -15.987 -7.11789 11
      vertex -15.987 -7.11789 13
    endloop
  endfacet
  facet normal 0.743145 -0.669131 0
    outer loop
      vertex 11.7098 -13.005 13
      vertex 14.1578 -10.2862 11
      vertex 14.1578 -10.2862 13
    endloop
  endfacet
  facet normal 0.743145 -0.669131 0
    outer loop
      vertex 14.1578 -10.2862 11
      vertex 11.7098 -13.005 13
      vertex 11.7098 -13.005 11
    endloop
  endfacet
  facet normal -0.406737 -0.913545 0
    outer loop
      vertex -8.75 -15.1554 11
      vertex -5.4078 -16.6435 13
      vertex -8.75 -15.1554 13
    endloop
  endfacet
  facet normal -0.406737 -0.913545 -0
    outer loop
      vertex -5.4078 -16.6435 13
      vertex -8.75 -15.1554 11
      vertex -5.4078 -16.6435 11
    endloop
  endfacet
  facet normal -0.207911 -0.978148 0
    outer loop
      vertex -5.4078 -16.6435 11
      vertex -1.82925 -17.4041 13
      vertex -5.4078 -16.6435 13
    endloop
  endfacet
  facet normal -0.207911 -0.978148 -0
    outer loop
      vertex -1.82925 -17.4041 13
      vertex -5.4078 -16.6435 11
      vertex -1.82925 -17.4041 11
    endloop
  endfacet
  facet normal -0.866025 -0.5 0
    outer loop
      vertex 2.28386 1.01684 0
      vertex 2.02254 1.46946 13
      vertex 2.02254 1.46946 0
    endloop
  endfacet
  facet normal -0.866025 -0.5 0
    outer loop
      vertex 2.02254 1.46946 13
      vertex 2.28386 1.01684 0
      vertex 2.28386 1.01684 13
    endloop
  endfacet
  facet normal 0 -1 0
    outer loop
      vertex -0.261321 2.4863 0
      vertex 0.261321 2.4863 13
      vertex -0.261321 2.4863 13
    endloop
  endfacet
  facet normal 0 -1 -0
    outer loop
      vertex 0.261321 2.4863 13
      vertex -0.261321 2.4863 0
      vertex 0.261321 2.4863 0
    endloop
  endfacet
  facet normal -0.743145 -0.669131 0
    outer loop
      vertex 2.02254 1.46946 0
      vertex 1.67283 1.85786 13
      vertex 1.67283 1.85786 0
    endloop
  endfacet
  facet normal -0.743145 -0.669131 0
    outer loop
      vertex 1.67283 1.85786 13
      vertex 2.02254 1.46946 0
      vertex 2.02254 1.46946 13
    endloop
  endfacet
  facet normal -0.207912 -0.978148 0
    outer loop
      vertex 0.261321 2.4863 0
      vertex 0.772542 2.37764 13
      vertex 0.261321 2.4863 13
    endloop
  endfacet
  facet normal -0.207912 -0.978148 -0
    outer loop
      vertex 0.772542 2.37764 13
      vertex 0.261321 2.4863 0
      vertex 0.772542 2.37764 0
    endloop
  endfacet
  facet normal 0.207912 -0.978148 0
    outer loop
      vertex -0.772542 2.37764 0
      vertex -0.261321 2.4863 13
      vertex -0.772542 2.37764 13
    endloop
  endfacet
  facet normal 0.207912 -0.978148 0
    outer loop
      vertex -0.261321 2.4863 13
      vertex -0.772542 2.37764 0
      vertex -0.261321 2.4863 0
    endloop
  endfacet
  facet normal 0.866025 -0.5 0
    outer loop
      vertex -2.28386 1.01684 13
      vertex -2.02254 1.46946 0
      vertex -2.02254 1.46946 13
    endloop
  endfacet
  facet normal 0.866025 -0.5 0
    outer loop
      vertex -2.02254 1.46946 0
      vertex -2.28386 1.01684 13
      vertex -2.28386 1.01684 0
    endloop
  endfacet
  facet normal -0.994522 0.104529 0
    outer loop
      vertex 2.44537 -0.519779 0
      vertex 2.5 0 13
      vertex 2.5 0 0
    endloop
  endfacet
  facet normal -0.994522 0.104529 0
    outer loop
      vertex 2.5 0 13
      vertex 2.44537 -0.519779 0
      vertex 2.44537 -0.519779 13
    endloop
  endfacet
  facet normal -0.207912 0.978148 0
    outer loop
      vertex 0.772542 -2.37764 0
      vertex 0.261321 -2.4863 13
      vertex 0.772542 -2.37764 13
    endloop
  endfacet
  facet normal -0.207912 0.978148 0
    outer loop
      vertex 0.261321 -2.4863 13
      vertex 0.772542 -2.37764 0
      vertex 0.261321 -2.4863 0
    endloop
  endfacet
  facet normal -0.951056 -0.309018 0
    outer loop
      vertex 2.44537 0.519779 0
      vertex 2.28386 1.01684 13
      vertex 2.28386 1.01684 0
    endloop
  endfacet
  facet normal -0.951056 -0.309018 0
    outer loop
      vertex 2.28386 1.01684 13
      vertex 2.44537 0.519779 0
      vertex 2.44537 0.519779 13
    endloop
  endfacet
  facet normal -0.587786 -0.809017 0
    outer loop
      vertex 1.25 2.16506 0
      vertex 1.67283 1.85786 13
      vertex 1.25 2.16506 13
    endloop
  endfacet
  facet normal -0.587786 -0.809017 -0
    outer loop
      vertex 1.67283 1.85786 13
      vertex 1.25 2.16506 0
      vertex 1.67283 1.85786 0
    endloop
  endfacet
  facet normal -0.406736 -0.913546 0
    outer loop
      vertex 0.772542 2.37764 0
      vertex 1.25 2.16506 13
      vertex 0.772542 2.37764 13
    endloop
  endfacet
  facet normal -0.406736 -0.913546 -0
    outer loop
      vertex 1.25 2.16506 13
      vertex 0.772542 2.37764 0
      vertex 1.25 2.16506 0
    endloop
  endfacet
  facet normal 0.994522 -0.104529 0
    outer loop
      vertex -2.5 0 13
      vertex -2.44537 0.519779 0
      vertex -2.44537 0.519779 13
    endloop
  endfacet
  facet normal 0.994522 -0.104529 0
    outer loop
      vertex -2.44537 0.519779 0
      vertex -2.5 0 13
      vertex -2.5 0 0
    endloop
  endfacet
  facet normal 0.743145 -0.669131 0
    outer loop
      vertex -2.02254 1.46946 13
      vertex -1.67283 1.85786 0
      vertex -1.67283 1.85786 13
    endloop
  endfacet
  facet normal 0.743145 -0.669131 0
    outer loop
      vertex -1.67283 1.85786 0
      vertex -2.02254 1.46946 13
      vertex -2.02254 1.46946 0
    endloop
  endfacet
  facet normal 0.406737 -0.913545 0
    outer loop
      vertex -1.25 2.16506 0
      vertex -0.772542 2.37764 13
      vertex -1.25 2.16506 13
    endloop
  endfacet
  facet normal 0.406737 -0.913545 0
    outer loop
      vertex -0.772542 2.37764 13
      vertex -1.25 2.16506 0
      vertex -0.772542 2.37764 0
    endloop
  endfacet
  facet normal 0.587785 -0.809017 0
    outer loop
      vertex -1.67283 1.85786 0
      vertex -1.25 2.16506 13
      vertex -1.67283 1.85786 13
    endloop
  endfacet
  facet normal 0.587785 -0.809017 0
    outer loop
      vertex -1.25 2.16506 13
      vertex -1.67283 1.85786 0
      vertex -1.25 2.16506 0
    endloop
  endfacet
  facet normal -0.994522 -0.104529 0
    outer loop
      vertex 2.5 0 0
      vertex 2.44537 0.519779 13
      vertex 2.44537 0.519779 0
    endloop
  endfacet
  facet normal -0.994522 -0.104529 0
    outer loop
      vertex 2.44537 0.519779 13
      vertex 2.5 0 0
      vertex 2.5 0 13
    endloop
  endfacet
  facet normal 0.207912 0.978148 -0
    outer loop
      vertex -0.261321 -2.4863 0
      vertex -0.772542 -2.37764 13
      vertex -0.261321 -2.4863 13
    endloop
  endfacet
  facet normal 0.207912 0.978148 0
    outer loop
      vertex -0.772542 -2.37764 13
      vertex -0.261321 -2.4863 0
      vertex -0.772542 -2.37764 0
    endloop
  endfacet
  facet normal -0.587786 0.809017 0
    outer loop
      vertex 1.67283 -1.85786 0
      vertex 1.25 -2.16506 13
      vertex 1.67283 -1.85786 13
    endloop
  endfacet
  facet normal -0.587786 0.809017 0
    outer loop
      vertex 1.25 -2.16506 13
      vertex 1.67283 -1.85786 0
      vertex 1.25 -2.16506 0
    endloop
  endfacet
  facet normal 0.951056 -0.309018 0
    outer loop
      vertex -2.44537 0.519779 13
      vertex -2.28386 1.01684 0
      vertex -2.28386 1.01684 13
    endloop
  endfacet
  facet normal 0.951056 -0.309018 0
    outer loop
      vertex -2.28386 1.01684 0
      vertex -2.44537 0.519779 13
      vertex -2.44537 0.519779 0
    endloop
  endfacet
  facet normal -0.951056 0.309018 0
    outer loop
      vertex 2.28386 -1.01684 0
      vertex 2.44537 -0.519779 13
      vertex 2.44537 -0.519779 0
    endloop
  endfacet
  facet normal -0.951056 0.309018 0
    outer loop
      vertex 2.44537 -0.519779 13
      vertex 2.28386 -1.01684 0
      vertex 2.28386 -1.01684 13
    endloop
  endfacet
  facet normal -0.866025 0.5 0
    outer loop
      vertex 2.02254 -1.46946 0
      vertex 2.28386 -1.01684 13
      vertex 2.28386 -1.01684 0
    endloop
  endfacet
  facet normal -0.866025 0.5 0
    outer loop
      vertex 2.28386 -1.01684 13
      vertex 2.02254 -1.46946 0
      vertex 2.02254 -1.46946 13
    endloop
  endfacet
  facet normal 0.994522 0.104529 0
    outer loop
      vertex -2.44537 -0.519779 13
      vertex -2.5 0 0
      vertex -2.5 0 13
    endloop
  endfacet
  facet normal 0.994522 0.104529 0
    outer loop
      vertex -2.5 0 0
      vertex -2.44537 -0.519779 13
      vertex -2.44537 -0.519779 0
    endloop
  endfacet
  facet normal 0.866025 0.5 0
    outer loop
      vertex -2.02254 -1.46946 13
      vertex -2.28386 -1.01684 0
      vertex -2.28386 -1.01684 13
    endloop
  endfacet
  facet normal 0.866025 0.5 0
    outer loop
      vertex -2.28386 -1.01684 0
      vertex -2.02254 -1.46946 13
      vertex -2.02254 -1.46946 0
    endloop
  endfacet
  facet normal -0.743145 0.669131 0
    outer loop
      vertex 1.67283 -1.85786 0
      vertex 2.02254 -1.46946 13
      vertex 2.02254 -1.46946 0
    endloop
  endfacet
  facet normal -0.743145 0.669131 0
    outer loop
      vertex 2.02254 -1.46946 13
      vertex 1.67283 -1.85786 0
      vertex 1.67283 -1.85786 13
    endloop
  endfacet
  facet normal 0.587786 0.809017 -0
    outer loop
      vertex -1.25 -2.16506 0
      vertex -1.67283 -1.85786 13
      vertex -1.25 -2.16506 13
    endloop
  endfacet
  facet normal 0.587786 0.809017 0
    outer loop
      vertex -1.67283 -1.85786 13
      vertex -1.25 -2.16506 0
      vertex -1.67283 -1.85786 0
    endloop
  endfacet
  facet normal 0 1 -0
    outer loop
      vertex 0.261321 -2.4863 0
      vertex -0.261321 -2.4863 13
      vertex 0.261321 -2.4863 13
    endloop
  endfacet
  facet normal 0 1 0
    outer loop
      vertex -0.261321 -2.4863 13
      vertex 0.261321 -2.4863 0
      vertex -0.261321 -2.4863 0
    endloop
  endfacet
  facet normal 0.951056 0.309018 0
    outer loop
      vertex -2.28386 -1.01684 13
      vertex -2.44537 -0.519779 0
      vertex -2.44537 -0.519779 13
    endloop
  endfacet
  facet normal 0.951056 0.309018 0
    outer loop
      vertex -2.44537 -0.519779 0
      vertex -2.28386 -1.01684 13
      vertex -2.28386 -1.01684 0
    endloop
  endfacet
  facet normal 0.743145 0.669131 0
    outer loop
      vertex -1.67283 -1.85786 13
      vertex -2.02254 -1.46946 0
      vertex -2.02254 -1.46946 13
    endloop
  endfacet
  facet normal 0.743145 0.669131 0
    outer loop
      vertex -2.02254 -1.46946 0
      vertex -1.67283 -1.85786 13
      vertex -1.67283 -1.85786 0
    endloop
  endfacet
  facet normal -0.406736 0.913546 0
    outer loop
      vertex 1.25 -2.16506 0
      vertex 0.772542 -2.37764 13
      vertex 1.25 -2.16506 13
    endloop
  endfacet
  facet normal -0.406736 0.913546 0
    outer loop
      vertex 0.772542 -2.37764 13
      vertex 1.25 -2.16506 0
      vertex 0.772542 -2.37764 0
    endloop
  endfacet
  facet normal 0.406736 0.913546 -0
    outer loop
      vertex -0.772542 -2.37764 0
      vertex -1.25 -2.16506 13
      vertex -0.772542 -2.37764 13
    endloop
  endfacet
  facet normal 0.406736 0.913546 0
    outer loop
      vertex -1.25 -2.16506 13
      vertex -0.772542 -2.37764 0
      vertex -1.25 -2.16506 0
    endloop
  endfacet
endsolid OpenSCAD_Model
